<?xml version="1.0" encoding="UTF-8"?>
<svg xmlns="http://www.w3.org/2000/svg" xmlns:xlink="http://www.w3.org/1999/xlink" width="55px" height="55px" viewBox="0 0 55 55" version="1.1">
<g id="surface1">
<path style=" stroke:none;fill-rule:nonzero;fill:rgb(0%,0%,0%);fill-opacity:1;" d="M 15.628906 15.222656 C 9.132812 21.804688 3.757812 27.273438 3.683594 27.371094 C 3.566406 27.53125 5.046875 29.070312 15.46875 39.640625 C 22.023438 46.277344 27.425781 51.734375 27.476562 51.757812 C 27.609375 51.796875 51.476562 27.617188 51.433594 27.5 C 51.390625 27.371094 27.5625 3.222656 27.5 3.234375 C 27.46875 3.234375 22.128906 8.625 15.628906 15.222656 Z M 36.148438 18.703125 C 40.875 23.492188 44.75 27.457031 44.773438 27.5 C 44.816406 27.617188 27.597656 45.019531 27.46875 44.976562 C 27.414062 44.96875 23.503906 41.035156 18.789062 36.253906 C 11.355469 28.703125 10.238281 27.53125 10.34375 27.371094 C 10.515625 27.132812 27.4375 10.011719 27.5 10 C 27.53125 9.992188 31.429688 13.910156 36.148438 18.703125 Z M 36.148438 18.703125 "/>
<path style=" stroke:none;fill-rule:nonzero;fill:rgb(0%,0%,0%);fill-opacity:1;" d="M 27.253906 13.289062 C 27.082031 13.460938 27.210938 13.609375 27.628906 13.71875 C 27.886719 13.78125 28.101562 13.824219 28.125 13.8125 C 28.132812 13.792969 28.046875 13.652344 27.917969 13.503906 C 27.714844 13.222656 27.402344 13.125 27.253906 13.289062 Z M 27.253906 13.289062 "/>
<path style=" stroke:none;fill-rule:nonzero;fill:rgb(0%,0%,0%);fill-opacity:1;" d="M 23.742188 16.917969 C 22.945312 17.714844 22.34375 18.367188 22.40625 18.367188 C 22.472656 18.367188 24.984375 18.585938 27.984375 18.851562 C 30.992188 19.121094 33.484375 19.324219 33.539062 19.3125 C 33.589844 19.292969 33.140625 18.789062 32.527344 18.195312 L 31.421875 17.113281 L 28.347656 16.296875 C 26.664062 15.84375 25.265625 15.46875 25.234375 15.46875 C 25.210938 15.46875 24.535156 16.125 23.742188 16.917969 Z M 23.742188 16.917969 "/>
<path style=" stroke:none;fill-rule:nonzero;fill:rgb(0%,0%,0%);fill-opacity:1;" d="M 19.207031 21.484375 C 18.617188 22.128906 18.273438 22.589844 18.1875 22.882812 C 18.089844 23.214844 18.089844 23.3125 18.1875 23.3125 C 18.261719 23.3125 20.601562 23.117188 23.398438 22.871094 C 26.1875 22.625 28.488281 22.441406 28.507812 22.460938 C 28.53125 22.484375 28.84375 25.984375 29.207031 30.238281 C 29.574219 34.492188 29.894531 38.132812 29.929688 38.316406 C 29.96875 38.585938 30.046875 38.683594 30.261719 38.734375 C 30.496094 38.800781 30.636719 38.703125 31.257812 38.070312 L 32 37.328125 L 32.59375 30.398438 C 33.195312 23.460938 33.257812 21.753906 32.9375 21.632812 C 32.796875 21.59375 20.785156 20.515625 20.378906 20.515625 C 20.171875 20.515625 19.882812 20.753906 19.207031 21.484375 Z M 19.207031 21.484375 "/>
<path style=" stroke:none;fill-rule:nonzero;fill:rgb(0%,0%,0%);fill-opacity:1;" d="M 35.621094 21.9375 C 35.578125 22.195312 35.34375 24.953125 35.074219 28.089844 C 34.804688 31.21875 34.570312 34.019531 34.523438 34.320312 L 34.472656 34.859375 L 35.964844 33.3125 L 37.46875 31.753906 L 38.351562 28.390625 L 39.242188 25.019531 L 37.53125 23.277344 C 36.597656 22.320312 35.792969 21.527344 35.75 21.507812 C 35.707031 21.484375 35.652344 21.679688 35.621094 21.9375 Z M 35.621094 21.9375 "/>
<path style=" stroke:none;fill-rule:nonzero;fill:rgb(0%,0%,0%);fill-opacity:1;" d="M 21.699219 25.320312 C 19.421875 25.523438 17.519531 25.726562 17.476562 25.769531 C 17.382812 25.867188 16.867188 27.746094 16.929688 27.8125 C 16.953125 27.832031 18.058594 27.554688 19.398438 27.1875 C 20.734375 26.824219 21.851562 26.542969 21.871094 26.566406 C 21.890625 26.585938 22.539062 28.960938 23.300781 31.839844 C 24.0625 34.71875 24.726562 37.125 24.78125 37.179688 C 24.878906 37.273438 27.523438 38.046875 27.574219 37.984375 C 27.597656 37.972656 27.390625 35.449219 27.125 32.375 C 26.609375 26.339844 26.382812 24.890625 25.964844 24.933594 C 25.890625 24.945312 23.976562 25.117188 21.699219 25.320312 Z M 21.699219 25.320312 "/>
<path style=" stroke:none;fill-rule:nonzero;fill:rgb(0%,0%,0%);fill-opacity:1;" d="M 14.125 26.640625 L 13.277344 27.5 L 13.75 27.984375 C 14.007812 28.25 14.253906 28.46875 14.289062 28.46875 C 14.351562 28.46875 15.0625 25.878906 15.007812 25.824219 C 14.984375 25.804688 14.585938 26.167969 14.125 26.640625 Z M 14.125 26.640625 "/>
<path style=" stroke:none;fill-rule:nonzero;fill:rgb(0%,0%,0%);fill-opacity:1;" d="M 40.894531 27.671875 C 40.789062 28.070312 40.722656 28.402344 40.746094 28.421875 C 40.765625 28.445312 40.992188 28.25 41.25 27.984375 L 41.722656 27.5 L 41.464844 27.230469 C 41.324219 27.082031 41.1875 26.960938 41.140625 26.960938 C 41.109375 26.960938 40.992188 27.285156 40.894531 27.671875 Z M 40.894531 27.671875 "/>
<path style=" stroke:none;fill-rule:nonzero;fill:rgb(0%,0%,0%);fill-opacity:1;" d="M 18.015625 29.949219 L 16.210938 30.445312 L 18.121094 32.375 C 19.175781 33.453125 20.496094 34.792969 21.054688 35.363281 C 21.613281 35.933594 22.085938 36.382812 22.109375 36.363281 C 22.128906 36.351562 21.828125 35.148438 21.441406 33.699219 C 20.796875 31.292969 20.121094 29.421875 19.90625 29.445312 C 19.863281 29.445312 19.003906 29.671875 18.015625 29.949219 Z M 18.015625 29.949219 "/>
<path style=" stroke:none;fill-rule:nonzero;fill:rgb(0%,0%,0%);fill-opacity:1;" d="M 26.480469 40.808594 C 27.007812 41.347656 27.5 41.789062 27.5625 41.789062 C 27.683594 41.789062 28.628906 40.722656 28.5625 40.671875 C 28.542969 40.648438 27.941406 40.488281 27.230469 40.292969 C 26.523438 40.101562 25.84375 39.917969 25.726562 39.886719 C 25.609375 39.851562 25.941406 40.261719 26.480469 40.808594 Z M 26.480469 40.808594 "/>
</g>
</svg>
